<svg viewBox="116.536 114.405 260 260" xmlns="http://www.w3.org/2000/svg">
  <path style="stroke: rgb(0, 0, 0); fill: none; stroke-width: 11px; stroke-linecap: round; stroke-linejoin: round;" d="M 215.934 176.167 C 211.668 169.235 186.433 159.003 174.344 165.306 C 159.111 173.248 146.943 194.704 156.348 210.458 C 161.626 219.3 171.407 223.121 180.789 226.003 C 203.611 233.015 241.272 247.088 237.068 279.459 C 234.257 301.099 210.004 309.759 193.823 310.354 C 187.297 310.594 173.965 307.399 168.394 303.742 C 161.914 299.488 153.449 286.517 155.224 287.889"/>
  <path style="stroke: rgb(0, 0, 0); fill: none; stroke-width: 11px; stroke-linecap: round;" d="M 238.179 162.04 C 238.179 182.296 240.606 198.862 246.804 218.408 C 250.628 230.465 254.651 242.457 258.3 254.57 C 260.769 262.768 262.434 268.768 264.534 277.1 C 266.833 286.227 269.043 295.5 270.71 304.772 C 273.342 319.403 270.077 316.394 264.413 305.285 C 262.784 302.088 261.198 298.869 259.655 295.629 C 257.81 291.756 255.894 287.91 254.251 283.947 C 245.121 261.921 243.365 238.014 245.201 214.376 C 245.789 206.799 246.691 193.166 254.231 188.39 C 263.186 182.719 271.822 198.599 274.932 204.192 C 288.146 227.96 293.518 253.589 302.251 278.8 C 302.497 279.51 302 277.316 301.803 276.592 C 301.25 274.56 300.636 272.546 300.061 270.52 C 299.095 267.119 298.108 263.724 297.181 260.312 C 296.018 256.031 294.863 251.747 293.79 247.443 C 291.028 236.358 288.72 225.355 287.914 213.943 C 287.368 206.197 287.459 200.498 295.821 198.332 C 307.131 195.402 312.019 204.952 316.909 213.757 C 329.662 236.724 334.522 262.738 341.433 287.781"/>
</svg>